<?xml version="1.0" standalone="no"?>
<!DOCTYPE svg PUBLIC "-//W3C//DTD SVG 20010904//EN"
 "http://www.w3.org/TR/2001/REC-SVG-20010904/DTD/svg10.dtd">
<svg version="1.0" xmlns="http://www.w3.org/2000/svg"
 width="366.000000pt" height="366.000000pt" viewBox="0 0 366.000000 366.000000"
 preserveAspectRatio="xMidYMid meet">
<metadata>
Created by potrace 1.11, written by Peter Selinger 2001-2013
</metadata>
<g transform="translate(0.000000,366.000000) scale(0.100000,-0.100000)"
fill="#000000" stroke="none">
<path d="M2140 3068 c-19 -17 -20 -31 -20 -191 0 -186 4 -201 51 -212 21 -5
31 -1 46 18 17 22 19 41 18 195 -1 120 -4 174 -13 185 -20 24 -59 26 -82 5z"/>
<path d="M2325 3082 c-41 -8 -45 -28 -45 -207 0 -122 4 -176 13 -187 20 -26
52 -30 77 -10 23 18 23 24 24 186 1 92 -2 176 -6 186 -9 23 -37 38 -63 32z"/>
<path d="M1310 3058 c-131 -65 -218 -232 -218 -419 -1 -194 86 -358 226 -426
l53 -26 -2 -108 -2 -109 -26 0 c-34 0 -48 -10 -59 -40 -5 -14 -8 -245 -8 -515
1 -459 3 -492 20 -521 28 -46 65 -64 135 -64 53 0 64 4 95 31 20 17 39 45 44
62 4 18 8 251 7 520 -1 444 -2 489 -18 507 -9 11 -29 20 -45 20 l-29 0 0 111
0 111 44 19 c144 62 243 263 229 464 -12 165 -82 298 -197 371 -37 23 -57 28
-124 31 -67 3 -87 0 -125 -19z m183 -104 c115 -60 180 -256 139 -424 -55 -224
-231 -296 -349 -142 -86 113 -102 296 -39 435 58 124 158 177 249 131z m-38
-1555 l0 -454 -30 0 -30 0 -3 456 -2 457 32 -3 33 -2 0 -454z"/>
<path d="M1959 3064 c-10 -13 -13 -80 -13 -313 1 -328 7 -373 65 -458 33 -48
99 -91 153 -100 l36 -6 0 -108 0 -109 -28 0 c-16 0 -37 -9 -47 -20 -17 -19
-18 -51 -18 -508 1 -269 4 -503 8 -520 3 -17 22 -45 41 -62 31 -27 42 -30 97
-30 69 1 95 11 129 55 l23 30 2 508 c1 489 0 510 -18 528 -10 10 -31 19 -47
19 l-27 0 0 108 0 107 50 13 c91 23 161 100 188 206 12 46 16 122 17 341 1
317 -2 335 -55 335 -59 0 -60 -4 -61 -324 -1 -195 -5 -306 -14 -335 -14 -52
-67 -110 -101 -113 -169 -10 -213 3 -250 78 -23 48 -24 57 -29 362 -5 339 -4
332 -61 332 -15 0 -33 -7 -40 -16z m334 -1612 c-2 -568 1 -512 -25 -512 -48 0
-47 -10 -46 462 l1 447 26 3 c14 2 31 2 36 1 6 -2 9 -143 8 -401z"/>
</g>
</svg>
